<svg width="10" height="12" viewBox="0 0 10 12" fill="none" xmlns="http://www.w3.org/2000/svg">
<path d="M7.31294 3.39228H8.84433C8.93696 3.39237 9.02625 3.42684 9.0949 3.48901C9.16356 3.55117 9.20671 3.63661 9.21597 3.72877L9.44403 6.00942H8.69179L8.50485 4.14004H7.31294V5.26166C7.31294 5.36082 7.27355 5.45592 7.20343 5.52604C7.13331 5.59615 7.03822 5.63554 6.93906 5.63554C6.8399 5.63554 6.7448 5.59615 6.67469 5.52604C6.60457 5.45592 6.56518 5.36082 6.56518 5.26166V4.14004H3.57417V5.26166C3.57417 5.36082 3.53478 5.45592 3.46467 5.52604C3.39455 5.59615 3.29945 5.63554 3.20029 5.63554C3.10114 5.63554 3.00604 5.59615 2.93592 5.52604C2.86581 5.45592 2.82642 5.36082 2.82642 5.26166V4.14004H1.63375L1.03555 10.1221H5.06968V10.8698H0.622043C0.569822 10.8698 0.518192 10.8588 0.470478 10.8376C0.422764 10.8163 0.380025 10.7853 0.345014 10.7466C0.310002 10.7079 0.283496 10.6622 0.267202 10.6126C0.250908 10.563 0.245187 10.5105 0.250409 10.4585L0.923387 3.72877C0.932649 3.63661 0.975789 3.55117 1.04445 3.48901C1.11311 3.42684 1.2024 3.39237 1.29502 3.39228H2.82642V3.13132C2.82642 1.83471 3.82542 0.775146 5.06968 0.775146C6.31394 0.775146 7.31294 1.83471 7.31294 3.13132V3.39303V3.39228ZM6.56518 3.39228V3.13132C6.56518 2.2385 5.89071 1.5229 5.06968 1.5229C4.24864 1.5229 3.57417 2.2385 3.57417 3.13132V3.39303H6.56518V3.39228ZM8.91836 9.0453L8.06069 8.18837V10.8698C8.06069 10.969 8.0213 11.0641 7.95118 11.1342C7.88107 11.2043 7.78597 11.2437 7.68681 11.2437C7.58765 11.2437 7.49256 11.2043 7.42244 11.1342C7.35233 11.0641 7.31294 10.969 7.31294 10.8698V8.18837L6.45601 9.0453C6.42152 9.08101 6.38027 9.10949 6.33465 9.12908C6.28904 9.14868 6.23998 9.15899 6.19033 9.15942C6.14069 9.15985 6.09146 9.15039 6.04551 9.13159C5.99956 9.1128 5.95782 9.08503 5.92272 9.04993C5.88761 9.01482 5.85985 8.97308 5.84105 8.92713C5.82225 8.88118 5.81279 8.83195 5.81322 8.78231C5.81366 8.73267 5.82397 8.68361 5.84356 8.63799C5.86316 8.59238 5.89164 8.55112 5.92735 8.51663L7.42286 7.02113C7.49297 6.95104 7.58805 6.91166 7.68719 6.91166C7.78632 6.91166 7.8814 6.95104 7.95152 7.02113L9.44702 8.51663C9.48273 8.55112 9.51121 8.59238 9.53081 8.63799C9.5504 8.68361 9.56072 8.73267 9.56115 8.78231C9.56158 8.83195 9.55212 8.88118 9.53332 8.92713C9.51452 8.97308 9.48676 9.01482 9.45166 9.04993C9.41655 9.08503 9.37481 9.1128 9.32886 9.13159C9.28291 9.15039 9.23368 9.15985 9.18404 9.15942C9.13439 9.15899 9.08533 9.14868 9.03972 9.12908C8.9941 9.10949 8.95285 9.08101 8.91836 9.0453Z" fill="white"/>
</svg>
