<svg width="19" height="19" viewBox="0 0 19 19" fill="none" xmlns="http://www.w3.org/2000/svg">
<path d="M17 9.5H7.5M15 12.5L18 9.5L15 6.5M10 4.5V3.5C10 2.96957 9.78929 2.46086 9.41421 2.08579C9.03914 1.71071 8.53043 1.5 8 1.5H3C2.46957 1.5 1.96086 1.71071 1.58579 2.08579C1.21071 2.46086 1 2.96957 1 3.5V15.5C1 16.0304 1.21071 16.5391 1.58579 16.9142C1.96086 17.2893 2.46957 17.5 3 17.5H8C8.53043 17.5 9.03914 17.2893 9.41421 16.9142C9.78929 16.5391 10 16.0304 10 15.5V14.5" stroke="black" stroke-width="2" stroke-linecap="round" stroke-linejoin="round"/>
</svg>
