<svg width="90" height="33" viewBox="0 0 90 33" fill="none" xmlns="http://www.w3.org/2000/svg">
<g filter="url(#filter0_dddd_2618_664)">
<path d="M82.5694 2.72642C83.1296 2.07864 82.6695 1.07227 81.813 1.07227H0V22.0723H81.813C82.6695 22.0723 83.1296 21.0659 82.5694 20.4181L75.4847 12.2264C75.1598 11.8508 75.1598 11.2937 75.4847 10.9181L82.5694 2.72642Z" fill="#2AA100"/>
</g>
<path d="M13.1468 7.78663C13.7844 7.78663 14.3672 7.93475 14.8953 8.23099C15.4298 8.52723 15.8484 8.93939 16.1511 9.46747C16.4602 9.99555 16.6147 10.5913 16.6147 11.2546C16.6147 11.9179 16.4602 12.5168 16.1511 13.0513C15.8419 13.5794 15.4233 13.9916 14.8953 14.2878C14.3672 14.5841 13.7844 14.7322 13.1468 14.7322C12.5092 14.7322 11.9232 14.5841 11.3887 14.2878C10.8606 13.9916 10.442 13.5794 10.1329 13.0513C9.82376 12.5168 9.6692 11.9179 9.6692 11.2546C9.6692 10.5913 9.82376 9.99555 10.1329 9.46747C10.442 8.93939 10.8606 8.52723 11.3887 8.23099C11.9232 7.93475 12.5092 7.78663 13.1468 7.78663ZM13.1468 9.30325C12.5994 9.30325 12.1615 9.48035 11.833 9.83455C11.511 10.1888 11.35 10.6621 11.35 11.2546C11.35 11.8471 11.511 12.3204 11.833 12.6746C12.1615 13.0288 12.5994 13.2059 13.1468 13.2059C13.6878 13.2059 14.1192 13.0288 14.4412 12.6746C14.7697 12.3204 14.9339 11.8471 14.9339 11.2546C14.9339 10.6621 14.7697 10.1888 14.4412 9.83455C14.1192 9.48035 13.6878 9.30325 13.1468 9.30325ZM21.0495 14.6646L19.5232 12.0274H19.33V14.6646H17.6782V7.88323H20.354C20.8821 7.88323 21.3329 7.97983 21.7064 8.17303C22.0864 8.36623 22.3697 8.62061 22.5565 8.93617C22.7497 9.25173 22.8463 9.59305 22.8463 9.96013C22.8463 10.353 22.7271 10.7362 22.4889 11.1097C22.2506 11.4832 21.861 11.7472 21.32 11.9018L22.9815 14.6646H21.0495ZM19.33 10.7716H20.354C20.6052 10.7716 20.8016 10.6975 20.9433 10.5494C21.0914 10.4013 21.1654 10.2049 21.1654 9.96013C21.1654 9.72185 21.0914 9.52543 20.9433 9.37087C20.7951 9.21631 20.5987 9.13903 20.354 9.13903H19.33V10.7716ZM25.7536 7.88323V11.9308C25.7536 12.3365 25.8535 12.6488 26.0531 12.8678C26.2527 13.0868 26.5458 13.1962 26.9322 13.1962C27.3186 13.1962 27.6148 13.0868 27.8209 12.8678C28.027 12.6488 28.13 12.3365 28.13 11.9308V7.88323H29.7819V11.9308C29.7819 12.5297 29.6466 13.0417 29.3761 13.4667C29.1057 13.8853 28.7515 14.2009 28.3135 14.4134C27.8756 14.6259 27.4055 14.7322 26.9032 14.7322C26.4009 14.7322 25.934 14.6259 25.5025 14.4134C25.0774 14.2009 24.7361 13.8853 24.4785 13.4667C24.2274 13.0417 24.1018 12.5297 24.1018 11.9308V7.88323H25.7536ZM31.8341 7.95085L33.8144 13.5247L35.814 7.95085H36.9829L34.4616 14.6646H33.1865L30.6556 7.95085H31.8341ZM42.7821 11.8535C42.7821 12.0403 42.7692 12.2141 42.7435 12.3751H38.6669C38.6927 12.8195 38.8408 13.1737 39.1113 13.4377C39.3882 13.6953 39.7328 13.8241 40.1449 13.8241C40.7438 13.8241 41.1657 13.5762 41.4104 13.0803H42.5986C42.4376 13.5698 42.1445 13.9723 41.7195 14.2878C41.2945 14.5969 40.7696 14.7515 40.1449 14.7515C39.6362 14.7515 39.1854 14.6388 38.7925 14.4134C38.3997 14.1816 38.0906 13.8596 37.8652 13.4474C37.6462 13.0288 37.5367 12.5458 37.5367 11.9984C37.5367 11.451 37.6462 10.9712 37.8652 10.5591C38.0906 10.1405 38.4029 9.81845 38.8022 9.59305C39.2079 9.36765 39.6716 9.25495 40.1932 9.25495C40.6955 9.25495 41.1431 9.36443 41.536 9.58339C41.9288 9.80235 42.2347 10.1083 42.4537 10.5011C42.6726 10.8939 42.7821 11.3447 42.7821 11.8535ZM41.6326 11.6217C41.6261 11.1837 41.4812 10.836 41.1979 10.5784C40.9145 10.3143 40.5635 10.1823 40.1449 10.1823C39.7521 10.1823 39.4172 10.3143 39.1403 10.5784C38.8698 10.836 38.7152 11.1837 38.6766 11.6217H41.6326ZM44.9671 10.2693C45.1281 9.94725 45.3406 9.69931 45.6046 9.52543C45.8751 9.34511 46.1939 9.25495 46.561 9.25495V10.3948H46.2808C45.8493 10.3948 45.5209 10.5043 45.2955 10.7233C45.0765 10.9422 44.9671 11.3222 44.9671 11.8632V14.6646H43.8658V9.34189H44.9671V10.2693ZM47.4283 7.93153C47.4283 7.73189 47.496 7.56445 47.6312 7.42921C47.7664 7.29397 47.9339 7.22635 48.1335 7.22635C48.3267 7.22635 48.4909 7.29397 48.6262 7.42921C48.7614 7.56445 48.829 7.73189 48.829 7.93153C48.829 8.13117 48.7614 8.29861 48.6262 8.43385C48.4909 8.56909 48.3267 8.63671 48.1335 8.63671C47.9339 8.63671 47.7664 8.56909 47.6312 8.43385C47.496 8.29861 47.4283 8.13117 47.4283 7.93153ZM48.6745 9.34189V14.6646H47.5732V9.34189H48.6745ZM51.3664 9.34189H54.4287V14.6646H53.3274V10.2403H51.3664V14.6646H50.2555V10.2403H49.6276V9.34189H50.2555V8.96515C50.2555 8.35335 50.4165 7.90899 50.7385 7.63207C51.067 7.34871 51.579 7.20703 52.2745 7.20703V8.12473C51.9396 8.12473 51.7045 8.18913 51.5693 8.31793C51.4341 8.44029 51.3664 8.65603 51.3664 8.96515V9.34189ZM53.878 8.63671C53.6848 8.63671 53.5206 8.56909 53.3854 8.43385C53.2501 8.29861 53.1825 8.13117 53.1825 7.93153C53.1825 7.73189 53.2501 7.56445 53.3854 7.42921C53.5206 7.29397 53.6848 7.22635 53.878 7.22635C54.0777 7.22635 54.2451 7.29397 54.3804 7.42921C54.5156 7.56445 54.5832 7.73189 54.5832 7.93153C54.5832 8.13117 54.5156 8.29861 54.3804 8.43385C54.2451 8.56909 54.0777 8.63671 53.878 8.63671ZM60.7531 11.8535C60.7531 12.0403 60.7402 12.2141 60.7145 12.3751H56.6379C56.6637 12.8195 56.8118 13.1737 57.0823 13.4377C57.3592 13.6953 57.7038 13.8241 58.1159 13.8241C58.7148 13.8241 59.1367 13.5762 59.3814 13.0803H60.5696C60.4086 13.5698 60.1155 13.9723 59.6905 14.2878C59.2655 14.5969 58.7406 14.7515 58.1159 14.7515C57.6072 14.7515 57.1564 14.6388 56.7635 14.4134C56.3707 14.1816 56.0616 13.8596 55.8362 13.4474C55.6172 13.0288 55.5077 12.5458 55.5077 11.9984C55.5077 11.451 55.6172 10.9712 55.8362 10.5591C56.0616 10.1405 56.3739 9.81845 56.7732 9.59305C57.1789 9.36765 57.6426 9.25495 58.1642 9.25495C58.6665 9.25495 59.1141 9.36443 59.507 9.58339C59.8998 9.80235 60.2057 10.1083 60.4247 10.5011C60.6436 10.8939 60.7531 11.3447 60.7531 11.8535ZM59.6036 11.6217C59.5971 11.1837 59.4522 10.836 59.1689 10.5784C58.8855 10.3143 58.5345 10.1823 58.1159 10.1823C57.7231 10.1823 57.3882 10.3143 57.1113 10.5784C56.8408 10.836 56.6862 11.1837 56.6476 11.6217H59.6036ZM63.9813 9.25495C64.3999 9.25495 64.767 9.35155 65.0826 9.54475C65.4046 9.73151 65.6525 9.97945 65.8264 10.2886V7.51615H66.9373V14.6646H65.8264V13.6696C65.6461 13.998 65.3981 14.2621 65.0826 14.4617C64.767 14.6549 64.3999 14.7515 63.9813 14.7515C63.5177 14.7515 63.0926 14.6356 62.7062 14.4037C62.3263 14.1655 62.0236 13.837 61.7982 13.4184C61.5792 12.9934 61.4697 12.5136 61.4697 11.9791C61.4697 11.4446 61.5792 10.9712 61.7982 10.5591C62.0236 10.1469 62.3263 9.82811 62.7062 9.60271C63.0926 9.37087 63.5177 9.25495 63.9813 9.25495ZM64.2132 10.2113C63.9298 10.2113 63.6658 10.2821 63.4211 10.4238C63.1763 10.5591 62.9767 10.7619 62.8221 11.0324C62.674 11.2964 62.6 11.612 62.6 11.9791C62.6 12.3462 62.674 12.6682 62.8221 12.9451C62.9767 13.222 63.1763 13.4345 63.4211 13.5826C63.6722 13.7243 63.9363 13.7952 64.2132 13.7952C64.4965 13.7952 64.7606 13.7243 65.0053 13.5826C65.25 13.441 65.4464 13.2349 65.5946 12.9644C65.7491 12.6875 65.8264 12.3655 65.8264 11.9984C65.8264 11.6313 65.7491 11.3125 65.5946 11.0421C65.4464 10.7716 65.25 10.5655 65.0053 10.4238C64.7606 10.2821 64.4965 10.2113 64.2132 10.2113Z" fill="white"/>
<defs>
<filter id="filter0_dddd_2618_664" x="-1" y="0.0722656" width="90.8149" height="32" filterUnits="userSpaceOnUse" color-interpolation-filters="sRGB">
<feFlood flood-opacity="0" result="BackgroundImageFix"/>
<feColorMatrix in="SourceAlpha" type="matrix" values="0 0 0 0 0 0 0 0 0 0 0 0 0 0 0 0 0 0 127 0" result="hardAlpha"/>
<feOffset/>
<feGaussianBlur stdDeviation="0.5"/>
<feColorMatrix type="matrix" values="0 0 0 0 0.129412 0 0 0 0 0.129412 0 0 0 0 0.129412 0 0 0 0.18 0"/>
<feBlend mode="normal" in2="BackgroundImageFix" result="effect1_dropShadow_2618_664"/>
<feColorMatrix in="SourceAlpha" type="matrix" values="0 0 0 0 0 0 0 0 0 0 0 0 0 0 0 0 0 0 127 0" result="hardAlpha"/>
<feOffset dx="1" dy="2"/>
<feGaussianBlur stdDeviation="1"/>
<feColorMatrix type="matrix" values="0 0 0 0 0.129412 0 0 0 0 0.129412 0 0 0 0 0.129412 0 0 0 0.15 0"/>
<feBlend mode="normal" in2="effect1_dropShadow_2618_664" result="effect2_dropShadow_2618_664"/>
<feColorMatrix in="SourceAlpha" type="matrix" values="0 0 0 0 0 0 0 0 0 0 0 0 0 0 0 0 0 0 127 0" result="hardAlpha"/>
<feOffset dx="2" dy="4"/>
<feGaussianBlur stdDeviation="1.5"/>
<feColorMatrix type="matrix" values="0 0 0 0 0.129412 0 0 0 0 0.129412 0 0 0 0 0.129412 0 0 0 0.09 0"/>
<feBlend mode="normal" in2="effect2_dropShadow_2618_664" result="effect3_dropShadow_2618_664"/>
<feColorMatrix in="SourceAlpha" type="matrix" values="0 0 0 0 0 0 0 0 0 0 0 0 0 0 0 0 0 0 127 0" result="hardAlpha"/>
<feOffset dx="4" dy="7"/>
<feGaussianBlur stdDeviation="1.5"/>
<feColorMatrix type="matrix" values="0 0 0 0 0.129412 0 0 0 0 0.129412 0 0 0 0 0.129412 0 0 0 0.03 0"/>
<feBlend mode="normal" in2="effect3_dropShadow_2618_664" result="effect4_dropShadow_2618_664"/>
<feBlend mode="normal" in="SourceGraphic" in2="effect4_dropShadow_2618_664" result="shape"/>
</filter>
</defs>
</svg>
