<svg width="31" height="28" viewBox="0 0 31 28" fill="none" xmlns="http://www.w3.org/2000/svg">
<path d="M29.6057 16.1561L22.1437 23.4218C21.2771 24.3007 19.9773 24.9218 18.6053 24.9218H12.9967C12.2866 24.9218 11.6488 25.1913 11.1794 25.6483L9.31388 27.3593H0.816833L8.98892 19.2968L8.97688 19.285C9.84344 18.4413 11.059 17.9139 12.395 17.9022H20.4587C21.3132 17.9022 21.9993 18.5702 21.9993 19.4022C21.9993 20.2343 21.3132 20.9022 20.4587 20.9022H13.9596C13.6828 20.8788 13.4541 21.1014 13.4541 21.3944C13.4541 21.6874 13.6828 21.8983 13.9716 21.8983H20.4347C21.1207 21.9218 21.7706 21.6405 22.252 21.1718C22.7334 20.703 22.9982 20.0585 22.9982 19.4022C23.0223 19.0975 22.938 18.7694 22.8297 18.4882L27.4152 14.0233C28.029 13.4257 28.9919 13.4257 29.5936 13.9999C30.2195 14.5975 30.2075 15.5702 29.6057 16.1561ZM8.39918 8.60925C8.39918 4.24988 11.9858 0.710815 16.4629 0.710815C20.9401 0.710815 24.5508 4.22644 24.5508 8.58582C24.5508 12.9452 20.9281 16.4608 16.475 16.4608C12.0219 16.4608 8.39918 12.9452 8.39918 8.60925ZM17.5341 10.4257C17.5341 10.9647 17.0768 11.3632 16.15 11.3632C15.2835 11.3632 14.4771 11.0702 13.9596 10.8241L13.5504 12.4178C14.0197 12.6757 14.9946 12.9218 15.9575 12.9218V14.1171H17.0768V12.8866C18.7136 12.535 19.4839 11.5858 19.4839 10.3553C19.4839 9.12488 18.7738 8.36316 17.2453 7.8241C16.138 7.37878 15.6205 7.16785 15.6205 6.61707C15.6205 6.21863 16.0658 5.82019 16.8842 5.82019C17.7026 5.82019 18.3044 6.06628 18.6775 6.21863L19.1348 4.66003C18.6414 4.40222 17.9674 4.21472 17.0406 4.21472V2.99597H15.9213V4.29675C14.429 4.58972 13.6105 5.52722 13.6105 6.73425C13.6105 8.03503 14.5373 8.7616 16.0176 9.2655C17.0888 9.66394 17.5341 9.8866 17.5341 10.4257Z" fill="black"/>
</svg>
